# xmcd
#
# Track frame offsets:
# 150
# 11072
# 22055
# 34277
# 44772
# 58500
# 71627
# 82875
# 93172
# 108040
# 119217
# 132170
# 147087
# 156597
# 165077
# 178292
# 191842
# 202125
# 215935
# 229000
# 238847
# 259262
# 271980
# 295872
#
# Disc length: 4440 seconds
#
#
# Revision: 0
# Processed by: cddbd v1.5.1PL2 Copyright (c) Steve Scherf et al.
# Submitted via: FreeRIP 2.944 
#
DISCID=73115618
DTITLE=The Golden Gate Quartett - The Best of
DYEAR=1900
DGENRE=Blues
TTITLE0=When the Moon goes down
TTITLE1=Didn't it rain
TTITLE2=I'm a Pilgrim
TTITLE3=Joshua fit the Battle of Jericho
TTITLE4=Amen
TTITLE5=The End of my Journey
TTITLE6=Rock my Soul
TTITLE7=Elijah
TTITLE8=Sometimes I feel like a motherless Child
TTITLE9=Get on Board
TTITLE10=I heard Zion moan
TTITLE11=Swing low, sweet Chariot
TTITLE12=Ezekiel saw the Wheel
TTITLE13=Travelin' Shoes
TTITLE14=Steel away
TTITLE15=What did Jesus say
TTITLE16=I looked down the Road and wondered
TTITLE17=Amazing Grace
TTITLE18=Nobody knows the Trouble i've seen
TTITLE19=Sampson
TTITLE20=Deep River
TTITLE21=Down by the Riverside
TTITLE22=When the Saints go marchin' in
TTITLE23=Data
EXTD=
EXTT0=
EXTT1=
EXTT2=
EXTT3=
EXTT4=
EXTT5=
EXTT6=
EXTT7=
EXTT8=
EXTT9=
EXTT10=
EXTT11=
EXTT12=
EXTT13=
EXTT14=
EXTT15=
EXTT16=
EXTT17=
EXTT18=
EXTT19=
EXTT20=
EXTT21=
EXTT22=
EXTT23=
PLAYORDER=
